# xmcd
#
# Track frame offsets: 
#        150
#        13401
#        25484
#        40753
#        52957
#        65393
#        75517
#        88971
#        101398
#        112918
#        125939
#        142098
#        151852
#        163577
#        171242
#        181834
#        192608
#        202580
#
# Disc length: 2902 seconds
#
# Revision: 0
# Processed by: cddbd v1.5.2PL0 Copyright (c) Steve Scherf et al.
# Submitted via: ExactAudioCopyFreeDBPlugin 1.0
#
DISCID=f10b5412
DTITLE=Dolly Parton and Kenny Rogers - Dolly and Kenny
DYEAR=1900
DGENRE=Country
TTITLE0=Kenny Rogers - Ruby don't take your love to town
TTITLE1=Dolly Parton - Making Believe
TTITLE2=Kenny Rogers - For the Good Times
TTITLE3=Dolly Parton - Letter to Heaven
TTITLE4=Kenny Rogers - Reuben James
TTITLE5=Dolly Parton - Release Me
TTITLE6=Kenny Rogers - Sine on Ruby Mountain
TTITLE7=Dolly Parton - Two Little Orphans
TTITLE8=Kenny Rogers - Me and Bobby McGee
TTITLE9=Dolly Parton - Little Blossom
TTITLE10=Kenny Rogers - The Way it used to be
TTITLE11=Dolly Parton - Girl Left Alone
TTITLE12=Kenny Rogers - Calico Silver
TTITLE13=Dolly Parton - Puppy Love
TTITLE14=Kenny Rogers - Ticket to Nowhere
TTITLE15=Dolly Parton - It wasn't God who made Honky Tonk Angels
TTITLE16=Kenny Rogers - Where does Rosie go
TTITLE17=Kenny Rogers - Just dropped in
EXTD=
EXTT0=
EXTT1=
EXTT2=
EXTT3=
EXTT4=
EXTT5=
EXTT6=
EXTT7=
EXTT8=
EXTT9=
EXTT10=
EXTT11=
EXTT12=
EXTT13=
EXTT14=
EXTT15=
EXTT16=
EXTT17=
PLAYORDER=
